HIERARCHY
ROOT Hips
{
  OFFSET 13.6774 106.653 -34.4427
  CHANNELS 6 Xposition Yposition Zposition Zrotation Xrotation Yrotation
  JOINT ToSpine
  {
    OFFSET -2.69724 7.43032 -0.144315
    CHANNELS 3 Zrotation Xrotation Yrotation
    JOINT Spine
    {
      OFFSET -0.0310711 10.7595 1.96963
      CHANNELS 3 Zrotation Xrotation Yrotation
      JOINT Spine1
      {
        OFFSET 19.9056 3.91189 0.764692
        CHANNELS 3 Zrotation Xrotation Yrotation
        JOINT Neck
        {
          OFFSET 25.9749 7.03908 -0.130764
          CHANNELS 3 Zrotation Xrotation Yrotation
          JOINT Head
          {
            OFFSET 9.52751 0.295786 -0.907742
            CHANNELS 3 Zrotation Xrotation Yrotation
            End Site
            {
              OFFSET 16.4037 0.713936 2.7358
            }
          }
        }
        JOINT LeftShoulder
        {
          OFFSET 17.7449 4.33886 11.7777
          CHANNELS 3 Zrotation Xrotation Yrotation
          JOINT LeftArm
          {
            OFFSET 0.911315 1.27913 9.80584
            CHANNELS 3 Zrotation Xrotation Yrotation
            JOINT LeftForeArm
            {
              OFFSET 28.6126 1.18197 -3.53199
              CHANNELS 3 Zrotation Xrotation Yrotation
              JOINT LeftHand
              {
                OFFSET 27.5088 0.0218783 0.327423
                CHANNELS 3 Zrotation Xrotation Yrotation
                End Site
                {
                  OFFSET 18.6038 -0.000155887 0.382096
                }
              }
            }
          }
        }
        JOINT RightShoulder
        {
          OFFSET 17.1009 2.89543 -12.2328
          CHANNELS 3 Zrotation Xrotation Yrotation
          JOINT RightArm
          {
            OFFSET 1.4228 0.178766 -10.211
            CHANNELS 3 Zrotation Xrotation Yrotation
            JOINT RightForeArm
            {
              OFFSET 28.733 1.87905 2.64907
              CHANNELS 3 Zrotation Xrotation Yrotation
              JOINT RightHand
              {
                OFFSET 27.4588 0.290562 -0.101845
                CHANNELS 3 Zrotation Xrotation Yrotation
                End Site
                {
                  OFFSET 17.8396 -0.255518 -0.000602873
                }
              }
            }
          }
        }
      }
    }
  }
  JOINT LeftUpLeg
  {
    OFFSET -5.61296 -2.22332 -10.2353
    CHANNELS 3 Zrotation Xrotation Yrotation
    JOINT LeftLeg
    {
      OFFSET 2.56703 -44.7417 -7.93097
      CHANNELS 3 Zrotation Xrotation Yrotation
      JOINT LeftFoot
      {
        OFFSET 3.16933 -46.5642 -3.96578
        CHANNELS 3 Zrotation Xrotation Yrotation
        JOINT LeftToeBase
        {
          OFFSET 0.346054 -6.02161 12.8035
          CHANNELS 3 Zrotation Xrotation Yrotation
          End Site
          {
            OFFSET 0.134235 -1.35082 5.13018
          }
        }
      }
    }
  }
  JOINT RightUpLeg
  {
    OFFSET -5.7928 -1.72406 10.6446
    CHANNELS 3 Zrotation Xrotation Yrotation
    JOINT RightLeg
    {
      OFFSET -2.57161 -44.7178 -7.85259
      CHANNELS 3 Zrotation Xrotation Yrotation
      JOINT RightFoot
      {
        OFFSET -3.10148 -46.5936 -4.03391
        CHANNELS 3 Zrotation Xrotation Yrotation
        JOINT RightToeBase
        {
          OFFSET -0.0828122 -6.13587 12.8035
          CHANNELS 3 Zrotation Xrotation Yrotation
          End Site
          {
            OFFSET -0.131328 -1.35082 5.13018
          }
        }
      }
    }
  }
}
MOTION
Frames: 21
Frame Time: 0.03333333333333333
0.0000 93.1000 0.0000 74.7441 -32.0209 -13.3709 -70.9968 -0.0363 87.9996 107.1091 71.1646 -21.9261 -0.3936 21.1456 2.3794 -145.5115 31.9767 167.0423 -147.5210 71.8144 -178.1998 -0.5358 -12.3884 -32.0725 -85.8454 49.0954 -63.8542 15.9185 22.3107 -37.3709 -0.1274 0.0402 0.2482 -2.1977 4.8664 42.8370 -82.1795 -30.1259 80.0861 14.9868 -10.2282 57.0463 -0.0735 -0.0521 -0.3216 -25.7087 5.7436 95.8810 -9.0409 69.2386 1.7712 -1.2177 -11.6772 -1.2571 6.9563 -17.4587 18.9399 -31.8944 -1.9649 87.8690 3.8463 64.1160 -7.8125 -9.0866 -20.5310 0.8696 1.9537 -4.4432 -17.7613 
0.0000 93.1000 0.0000 73.7206 -32.5685 -13.3564 -70.9951 -0.4209 88.0007 107.2758 71.3167 -22.0054 -0.6566 21.8533 2.0535 -144.3174 31.9390 167.0271 -147.4621 71.8882 -178.2063 -0.3920 -12.4698 -31.2590 -85.6598 49.0423 -61.8279 14.1356 23.1519 -33.2362 -0.2603 -0.2446 0.4043 -2.1225 5.0074 42.0311 -83.9771 -31.0112 81.1666 16.8390 -9.2025 62.7192 0.3425 0.3297 0.1860 -25.3442 4.3981 94.1232 -7.4841 63.0721 -2.4892 -2.0597 -8.6620 -0.7673 6.3046 -15.0885 14.8398 -34.8766 -1.1406 88.9884 2.9194 61.8907 -6.9994 -8.3880 -21.0056 0.5187 2.1935 -3.7809 -19.5122 
0.0000 93.1000 0.0000 73.8580 -32.9929 -14.3676 -70.9873 0.5203 88.0015 108.2251 71.9395 -22.0783 -0.6408 22.5983 2.2854 -144.4994 31.9669 167.2752 -148.4197 72.0401 -177.2487 0.1966 -12.1670 -31.1412 -86.2441 48.9869 -58.9439 12.9088 25.0774 -30.1641 -0.3376 0.5161 -0.0551 -1.6873 5.2410 41.7095 -84.9476 -30.9674 80.9738 15.7738 -7.8111 66.7373 -0.2254 -0.3395 -0.2767 -27.0440 3.7982 92.8846 -5.7249 55.9991 -8.9808 -4.0447 -5.4219 -0.7499 5.7582 -14.5503 13.2551 -37.7976 -0.9397 90.4053 2.8718 58.9948 -6.1173 -8.8904 -21.4735 1.0888 2.5138 -3.5239 -23.1020 
0.0000 93.1000 0.0000 72.9762 -34.3954 -15.2211 -70.9853 0.3650 88.0017 107.1800 72.7050 -20.9552 -1.2935 23.1686 1.9208 -145.3618 32.0792 168.2971 -149.4850 71.9390 -177.3151 0.2486 -11.4878 -30.8437 -89.1387 49.1218 -54.7779 12.0814 25.6586 -29.1884 -0.3036 0.3864 -0.0153 -1.7833 5.1540 41.1422 -85.0360 -31.0919 81.8533 16.1797 -6.3065 69.9104 -0.0470 -0.2738 -0.1973 -28.7344 2.7093 92.7471 -4.8331 51.3266 -13.0667 -5.8206 -3.8856 -0.1708 5.4128 -15.5687 12.5098 -39.9175 -1.0541 91.5956 1.9192 56.1747 -8.0347 -8.7708 -21.5907 1.1010 2.0983 -3.8989 -18.4449 
0.0000 93.1000 0.0000 71.9293 -34.9934 -15.1086 -70.9872 -0.1150 87.9991 106.1766 73.1287 -19.3597 -1.5103 23.1662 1.6902 -146.3829 31.7097 168.1975 -148.4091 71.2910 -178.5131 0.5200 -10.6275 -30.1985 -89.8466 50.1419 -51.8378 10.8321 22.8827 -28.8977 -0.1668 -0.0882 0.2134 -1.9064 5.1751 40.9463 -84.8989 -31.0856 81.9398 16.2171 -5.3012 72.9484 0.2944 0.1120 0.0775 -31.2082 3.0051 93.0656 -4.5290 47.2309 -15.7353 -7.5640 -1.1005 0.5330 5.5669 -14.9123 12.4090 -41.7446 -0.1662 92.8203 1.9496 52.8685 -6.9500 -8.5458 -21.2993 0.8292 1.6749 -5.3480 -17.1314 
0.0000 93.1000 0.0000 70.8257 -35.9947 -16.1328 -70.9848 -0.3235 87.9996 104.9451 73.8169 -16.8554 -0.9583 23.6769 1.8291 -146.3490 31.5142 168.2179 -147.1156 71.2756 -179.4570 1.0713 -10.2950 -29.9570 -88.9525 52.2139 -49.7777 9.7428 20.3302 -28.1560 0.0323 -0.3057 0.3006 -1.7261 5.0256 41.3896 -85.0715 -30.9997 81.0916 16.2573 -4.6682 74.8902 0.3026 0.2625 0.2366 -34.1336 2.5921 93.9453 -4.2943 43.9519 -15.3467 -7.6008 0.7583 0.6442 4.1749 -10.3662 9.2812 -44.6898 -0.9653 92.9193 1.8625 49.7987 -4.8832 -9.1473 -21.0012 1.0803 1.6154 -6.2723 -18.2530 
0.0000 93.1000 0.0000 70.0708 -37.1319 -16.1450 -70.9736 -0.2301 88.0003 100.2542 73.9851 -11.5337 0.4558 23.8821 2.3854 -147.4711 31.1095 168.3286 -147.2302 70.5837 -179.7733 4.6699 -9.9157 -29.1155 -90.9051 52.9775 -46.8853 8.1023 19.4501 -28.3761 1.2999 -0.7979 0.1308 0.2226 4.9719 41.2902 -85.0716 -30.2380 80.7052 15.8832 -5.0697 74.6716 0.1623 0.7695 1.5284 -36.2635 3.5262 94.2435 -4.3784 41.2482 -16.1891 -4.0828 1.8630 -1.8817 3.5948 -11.7887 6.6298 -46.0424 -0.7014 94.4858 1.1409 47.2729 -6.0189 -9.0784 -19.9874 2.1997 3.5947 -6.5033 -13.4212 
0.0000 93.1000 0.0000 68.8897 -38.5297 -17.0438 -70.9938 -0.2414 87.9913 95.9632 74.1159 -6.7090 1.2421 23.9156 1.4049 -149.4848 31.1681 168.2601 -146.0691 69.7447 177.9972 1.8315 -10.0148 -28.3887 -91.0719 53.9927 -45.8138 7.9664 17.6848 -29.3197 0.4066 -0.4840 0.4203 -1.3943 4.8066 40.6948 -83.9653 -29.6624 79.9681 15.3281 -4.6178 74.7683 0.2014 0.3326 0.3582 -38.6705 3.2898 96.6819 -3.6997 39.1753 -16.9675 -3.4408 2.7967 -0.5282 4.9999 -16.1703 8.9110 -47.7884 -2.0483 94.1237 0.8811 44.7927 -5.1281 -7.7330 -19.2096 1.1275 1.7084 -7.9452 -13.4505 
0.0000 93.1000 0.0000 67.9202 -37.8356 -16.9787 -70.9910 -0.4349 87.9935 93.1432 74.1830 -4.1179 1.2219 23.8345 2.3363 -150.3402 31.2279 169.2240 -146.2755 69.7021 177.0836 2.0006 -9.8519 -29.0475 -91.7167 54.1455 -45.7503 8.2756 16.3234 -28.9971 0.5897 -0.6026 0.1192 -1.3764 4.6209 42.0097 -84.9474 -29.4081 79.0217 15.7347 -5.2825 73.8435 0.1725 0.3643 0.6451 -39.0534 1.7463 96.0698 -2.7037 38.3481 -12.1774 0.9185 -1.2043 -1.4437 2.1782 -8.3640 3.3857 -49.9951 -2.5753 93.8404 1.0354 42.3204 -5.1689 -7.8308 -17.5935 1.4007 1.4178 -8.9803 -10.8157 
0.0000 93.1000 0.0000 68.1148 -37.2061 -16.9533 -70.9928 -0.4410 87.9949 91.0634 73.8831 -3.6477 0.9934 22.9800 3.7663 -151.4033 30.8812 169.1670 -145.3410 69.1200 176.7845 1.4273 -10.2327 -29.1308 -91.1342 54.1256 -48.8239 8.9036 17.7299 -29.1020 0.6018 -0.4443 -0.1186 -1.6624 4.4666 42.9464 -85.7593 -29.0922 77.6606 16.0787 -6.2794 71.9297 0.0103 0.2728 0.5813 -40.2448 0.7733 94.8811 -2.8499 37.1642 -10.0614 2.5907 -3.7115 -1.5282 0.7718 -4.4594 0.1901 -50.7959 -2.8966 93.7669 0.9332 39.9148 -3.8825 -7.0550 -16.0259 1.2401 2.5167 -10.0155 -14.0906 
0.0000 93.1000 0.0000 66.9091 -37.4675 -16.0183 -70.9968 -0.4435 87.9931 90.0296 73.9882 -0.6315 0.4545 23.0560 3.6558 -151.3776 30.7491 169.2711 -146.4465 69.1581 177.7331 -0.0349 -10.7242 -29.8418 -90.0225 54.0579 -50.8819 9.8269 19.1476 -30.3018 0.3030 -0.3221 -0.1681 -2.5281 4.7988 43.0370 -86.3627 -28.7747 76.2305 16.4607 -6.4202 69.7795 -0.0428 0.2282 0.1764 -40.8054 0.2172 93.9921 -2.8055 36.2810 -9.0022 2.4698 -5.8560 -0.8710 0.3908 -1.7562 0.8747 -51.6329 -2.8893 92.1073 0.7861 39.0374 -2.7628 -6.5947 -14.1023 0.8114 1.7352 -11.8598 -9.7505 
0.0000 93.1000 0.0000 66.8797 -37.5778 -15.9552 -71.0029 0.0351 87.9914 89.0068 73.8218 -1.3139 -0.2609 22.3137 3.8853 -150.1771 29.9417 169.0856 -146.6850 68.8703 178.4447 -2.4489 -11.1768 -29.9903 -91.0096 53.0817 -52.7996 11.9350 19.4562 -32.9249 -1.2156 0.2281 0.1802 -3.7373 4.9157 43.8208 -87.5996 -29.3066 74.8685 17.0292 -7.3280 66.7889 0.1379 -0.1531 -0.9228 -42.0801 -0.1833 94.0541 -2.9242 35.0861 -8.1928 1.3692 -6.2927 0.5850 0.0050 -3.0118 1.1231 -51.1778 -3.8782 90.9678 0.9686 40.0385 -3.0020 -6.8956 -11.5753 -0.3125 0.5147 -15.2074 -9.2981 
0.0000 93.1000 0.0000 67.0842 -38.2716 -15.9470 -70.9887 -0.3626 88.0015 92.0319 73.2753 -3.8835 -0.6552 21.9963 5.1088 -151.3272 29.8020 168.9034 -148.7307 68.9806 -179.4309 0.3830 -11.7294 -30.3090 -90.0382 51.2379 -54.7370 11.8846 17.7538 -35.0699 -0.0456 -0.3390 -0.2409 -2.3127 5.1237 45.0662 -87.1171 -29.4176 74.9907 15.4740 -8.5093 63.7147 0.2363 0.5463 0.4581 -43.1854 -1.0307 92.9402 -3.0754 34.2867 -9.8479 1.5515 -5.9291 -0.8776 0.4673 -4.4492 3.8176 -51.3157 -4.9494 91.1097 0.9881 40.1379 -0.9424 -7.2981 -8.5642 0.9182 2.1500 -19.1500 -10.5835 
0.0000 93.1000 0.0000 66.9903 -39.0332 -15.9614 -70.9898 -0.0732 88.0013 93.0157 72.8453 -4.9921 -0.7833 21.6360 4.9821 -150.3166 28.9130 168.8698 -147.2711 68.0956 -179.3304 0.0781 -11.9689 -30.2365 -90.0471 50.2603 -56.8588 11.8855 15.8440 -38.1365 -0.1383 -0.0528 -0.2436 -2.3600 5.0628 44.7652 -86.7729 -29.9077 74.9912 15.9511 -9.9210 60.7910 -0.0153 0.2806 0.2199 -44.3689 -0.8124 93.0763 -2.9297 33.2395 -8.7117 1.6591 -7.3683 -0.9773 -0.1189 -2.5008 1.8866 -51.2631 -5.1784 91.8299 1.1080 41.2172 0.2202 -6.0467 -7.7293 0.7112 1.3556 -15.5154 -13.7240 
0.0000 93.1000 0.0000 65.9066 -39.2376 -16.0972 -70.9921 -0.1339 87.9982 91.9892 72.8942 -4.4503 -0.4472 21.2895 4.8990 -151.3634 27.9805 169.1229 -149.1946 66.8582 -178.4156 0.2005 -12.0911 -30.2351 -90.9592 48.9171 -58.9375 11.3138 13.4191 -41.4781 0.2395 -0.0239 -0.1804 -2.1257 5.0640 44.0937 -86.8915 -31.1816 73.9980 16.7744 -11.9220 58.8446 -0.1266 0.2248 0.2383 -45.1068 -1.0616 93.9339 -2.0091 32.1666 -9.0877 2.4787 -8.0661 -1.1508 -1.1970 -0.1419 0.4552 -50.8543 -5.1083 91.3228 1.8610 42.0662 2.9188 -6.8358 -6.2775 0.7887 2.4902 -17.5190 -17.8226 
0.0000 93.1000 0.0000 65.8239 -40.0519 -16.0520 -70.9919 0.3970 87.9938 92.0430 72.7690 -6.0531 -0.7160 20.8817 5.5761 -152.2948 27.0306 170.1562 -148.9321 66.0902 -177.1333 0.0516 -12.2758 -29.9884 -89.9578 47.9035 -60.6923 10.9398 10.9002 -46.1420 -0.1267 0.4469 -0.2199 -2.0884 4.8068 44.1466 -86.9990 -31.2968 74.0239 16.1614 -11.8180 56.8024 -0.3269 -0.2845 -0.2417 -46.0860 -0.1505 95.8642 -1.8377 31.3433 -9.0540 1.9630 -7.7396 -1.1317 -0.8859 0.7045 -0.6858 -49.9340 -5.0782 90.9866 1.9080 42.1389 3.0566 -7.5987 -6.5851 0.9170 1.8302 -18.4992 -19.1051 
0.0000 93.1000 0.0000 64.9701 -40.2647 -16.0083 -70.9926 0.4562 87.9942 89.9510 72.2457 -5.1572 -0.7154 20.1993 6.0113 -152.3798 26.8213 171.3374 -152.2440 65.7890 -175.1595 -0.1274 -12.3915 -29.9592 -90.9145 45.4978 -61.8435 10.7285 9.3880 -48.9805 -0.2231 0.5571 -0.2006 -2.0914 4.3534 44.6168 -86.7707 -31.8846 73.8389 15.1923 -12.1223 54.7013 -0.2098 -0.4323 -0.3801 -47.0731 0.1878 96.0430 -2.0377 30.2480 -9.0678 2.2381 -7.9490 -1.0988 -1.5898 1.5450 -0.0961 -49.8560 -4.7464 91.0067 1.9955 40.1775 2.9381 -8.7626 -6.3019 0.9715 2.5629 -20.7963 -21.9309 
0.0000 93.1000 0.0000 64.8868 -40.9499 -17.0421 -70.9908 0.3648 87.9942 89.0110 71.7660 -3.3175 -0.4714 20.1213 5.1721 -152.3607 26.0911 172.0105 -153.5498 64.9984 -173.1957 -0.6342 -12.8293 -30.0834 -92.0791 43.0481 -61.8560 9.4579 7.9281 -51.3163 -0.2657 0.5549 -0.2408 -2.3467 4.1007 44.2060 -87.8227 -32.2259 73.1385 14.5192 -11.9745 51.7828 -0.1256 -0.5015 -0.5893 -47.2442 0.1844 97.0860 -2.0452 29.2903 -7.9837 2.6893 -9.0136 -1.1018 -1.0473 2.6051 -3.2820 -49.9971 -4.6837 91.0107 1.0306 37.0508 1.8599 -8.1710 -6.7148 0.9209 1.6119 -19.9557 -18.7093 
0.0000 93.1000 0.0000 64.0375 -42.0632 -17.1528 -70.9921 0.0444 87.9939 87.9180 71.1208 -2.1453 -0.9732 19.9208 5.0114 -152.3730 24.8744 172.9926 -154.6505 64.1242 -173.3818 -1.3790 -12.8545 -30.1915 -95.0388 41.1359 -62.8004 10.5801 7.4446 -54.9634 -0.3048 0.3347 -0.0722 -2.7231 3.9366 43.9444 -87.1520 -33.0491 73.0527 14.1517 -13.0074 49.8525 0.1680 -0.3871 -0.6984 -48.0014 0.8620 98.0801 -1.9549 29.1654 -7.8519 2.9731 -9.4013 -0.6549 -0.9301 2.1180 -2.9423 -48.7655 -5.0679 92.0060 0.8787 34.2057 -0.2194 -6.6268 -7.0667 0.4759 1.4519 -17.1394 -17.0291 
0.0000 93.1000 0.0000 63.9460 -42.9198 -18.1507 -70.9949 -0.0850 87.9930 86.8922 70.8772 -1.7967 -1.4974 19.6905 4.5816 -152.4134 24.2258 173.0854 -156.5282 63.9143 -171.4610 -2.1221 -12.7432 -30.0760 -94.9824 39.2469 -63.8373 10.9418 7.5435 -56.2564 -0.2279 0.3397 -0.1155 -3.1258 4.0549 43.9467 -87.8374 -33.3674 72.1130 13.9756 -13.4966 48.7999 0.1870 -0.4152 -0.9329 -48.9998 0.9621 98.0520 -1.7363 28.2683 -6.9604 3.1604 -10.2755 -0.3677 -0.4544 2.1360 -3.8421 -48.8970 -5.3318 90.0433 -0.0454 32.2088 1.7547 -6.2996 -7.2708 0.1803 0.7369 -13.7697 -15.3570 
0.0000 93.1000 0.0000 62.9895 -43.1518 -17.9696 -70.9947 0.2288 87.9923 85.9571 71.0818 -1.1726 -1.6711 19.2356 5.3595 -152.3916 23.2566 174.2552 -156.2051 62.8888 -170.9341 -1.8132 -12.9136 -30.2303 -94.9044 37.9712 -64.7748 11.0851 7.1588 -57.2612 -0.3974 0.4746 -0.0426 -2.9324 4.0754 43.8169 -85.8648 -33.9301 72.9864 12.9731 -13.1574 46.9660 0.0345 -0.5063 -0.8016 -49.3804 1.0842 97.9984 -2.1710 27.2331 -7.1728 3.1942 -9.8637 -0.5105 -0.5364 2.7602 -3.7183 -48.9090 -5.1648 87.8119 -1.2555 29.0309 7.7943 -4.9387 -7.0417 -0.1076 1.2366 -14.0535 -17.9707 
